<?xml version="1.0" encoding="utf-8"?>
<!-- Generator: Adobe Illustrator 23.1.0, SVG Export Plug-In . SVG Version: 6.00 Build 0)  -->
<svg version="1.1" id="Ebene_1" xmlns="http://www.w3.org/2000/svg" xmlns:xlink="http://www.w3.org/1999/xlink" x="0px" y="0px"
	 viewBox="0 0 105 105" style="enable-background:new 0 0 105 105;" xml:space="preserve">
<style type="text/css">
	.st0{fill:#FFED00;stroke:#FFED00;stroke-width:0.5763;stroke-miterlimit:10;}
</style>
<circle class="st0" cx="52.64" cy="52.5" r="50.33"/>
<path d="M72.48,23.16c0-1.48-1.2-2.69-2.69-2.69c-0.03,0-0.06,0.01-0.09,0.01v-0.01H41.08v0c-4.58,0.03-8.28,3.75-8.28,8.33
	c0,0.03,0,0.05,0,0.08h0l0,47.3l0,0l0,0v0.24h0.01c0.12,4.36,3.59,7.88,7.93,8.08v0.02H69.7v-0.01c0.03,0,0.06,0.01,0.09,0.01
	c1.48,0,2.69-1.2,2.69-2.69c0-0.14-0.02-0.28-0.04-0.42h0.04V70.97h-0.03c-0.16-1.33-1.28-2.36-2.65-2.36
	c-0.03,0-0.06,0.01-0.09,0.01v-0.01h-7.56H54.6h-0.19c-1.42,0-2.58-1.15-2.58-2.58V39.71c0-1.42,1.15-2.58,2.58-2.58h0.19v0h15.1
	v-0.01c0.03,0,0.06,0.01,0.09,0.01c1.48,0,2.69-1.2,2.69-2.69c0-0.02,0-0.03,0-0.05h0V23.16L72.48,23.16
	C72.48,23.16,72.48,23.16,72.48,23.16z"/>
</svg>
