<svg version="1.2" xmlns="http://www.w3.org/2000/svg" viewBox="0 0 1166 362" width="1166" height="362">
	<title>Coscom Logo schwarz-ai</title>
	<style>
		.s0 { fill: #231f20 } 
	</style>
	<g id="Ebene 1">
		<g id="&lt;Group&gt;">
			<g id="&lt;Group&gt;">
				<path id="&lt;Path&gt;" class="s0" d="m1069.3 58.9c0-14.6 11.4-26.5 25.4-26.5 14.1 0 25.5 11.9 25.5 26.5 0 14.6-11.4 26.5-25.5 26.5-14 0-25.4-11.9-25.4-26.5z"/>
			</g>
			<g id="&lt;Group&gt;">
				<g id="&lt;Group&gt;">
					<path id="&lt;Compound Path&gt;" fill-rule="evenodd" class="s0" d="m228.4 32.4h117.2c14.1 0 25.6 11.9 25.6 26.6v150.4c0 14.7-11.5 26.7-25.6 26.7h-117.2c-14.1 0-25.5-12-25.5-26.7v-150.4c0-14.7 11.4-26.6 25.5-26.6zm40.1 53c-4.4 0-7.9 3.7-7.9 8.2v83.7c0 4.5 3.5 8.2 7.9 8.2h37.5c4.3 0 7.8-3.7 7.8-8.2v-83.7c0-4.5-3.5-8.2-7.8-8.2z"/>
				</g>
			</g>
			<g id="&lt;Group&gt;">
				<path id="&lt;Path&gt;" class="s0" d="m422.8 32.4h85.3v53h-85.3z"/>
			</g>
			<g id="&lt;Group&gt;">
				<g id="&lt;Group&gt;">
					<path id="&lt;Compound Path&gt;" fill-rule="evenodd" class="s0" d="m712.5 32.4h117.2c14.1 0 25.5 11.9 25.5 26.6v150.4c0 14.7-11.4 26.7-25.5 26.7h-117.2c-14.1 0-25.6-12-25.6-26.7v-150.4c0-14.7 11.5-26.6 25.6-26.6zm40.1 53c-4.4 0-7.9 3.7-7.9 8.2v83.7c0 4.5 3.5 8.2 7.9 8.2h37.4c4.4 0 7.9-3.7 7.9-8.2v-83.7c0-4.5-3.5-8.2-7.9-8.2z"/>
				</g>
			</g>
			<g id="&lt;Group&gt;">
				<path id="&lt;Path&gt;" class="s0" d="m976.9 208h47.6v19.7h-47.6z"/>
			</g>
			<g id="&lt;Group&gt;">
				<path id="&lt;Path&gt;" class="s0" d="m56.7 58.9c0-14.6 11.4-26.5 25.5-26.5 14.1 0 25.5 11.9 25.5 26.5 0 14.6-11.4 26.5-25.5 26.5-14.1 0-25.5-11.9-25.5-26.5z"/>
			</g>
			<g id="&lt;Group&gt;">
				<path id="&lt;Path&gt;" class="s0" d="m161.5 40.9c0-4.7 3.7-8.5 8.2-8.5 4.5 0 8.2 3.8 8.2 8.5 0 4.8-3.7 8.6-8.2 8.6-4.5 0-8.2-3.8-8.2-8.6z"/>
			</g>
			<g id="&lt;Group&gt;">
				<path id="&lt;Path&gt;" class="s0" d="m161.5 76.8c0-4.7 3.7-8.5 8.2-8.5 4.5 0 8.2 3.8 8.2 8.5 0 4.8-3.7 8.6-8.2 8.6-4.5 0-8.2-3.8-8.2-8.6z"/>
			</g>
			<g id="&lt;Group&gt;">
				<path id="&lt;Path&gt;" class="s0" d="m161.5 194c0-4.7 3.7-8.5 8.2-8.5 4.5 0 8.2 3.8 8.2 8.5 0 4.7-3.7 8.5-8.2 8.5-4.5 0-8.2-3.8-8.2-8.5z"/>
			</g>
			<g id="&lt;Group&gt;">
				<path id="&lt;Path&gt;" class="s0" d="m161.5 227.5c0-4.7 3.7-8.5 8.2-8.5 4.5 0 8.2 3.8 8.2 8.5 0 4.7-3.7 8.6-8.2 8.6-4.5 0-8.2-3.9-8.2-8.6z"/>
			</g>
			<g id="&lt;Group&gt;">
				<path id="&lt;Path&gt;" class="s0" d="m56.7 209.5c0-14.6 11.4-26.5 25.5-26.5 14.1 0 25.5 11.9 25.5 26.5 0 14.7-11.4 26.6-25.5 26.6-14.1 0-25.5-11.9-25.5-26.6z"/>
			</g>
			<g id="&lt;Group&gt;">
				<path id="&lt;Path&gt;" class="s0" d="m82 32.4h87.4v53h-87.4z"/>
			</g>
			<g id="&lt;Group&gt;">
				<path id="&lt;Path&gt;" class="s0" d="m155.6 41h22.3v35.7h-22.3z"/>
			</g>
			<g id="&lt;Group&gt;">
				<path id="&lt;Path&gt;" class="s0" d="m56.7 59.2l66.6 3.4v22.8h-0.6c-4.3 0-7.8 3.7-7.8 8.2v83.7c0 4.5 3.5 8.2 7.8 8.2h0.6v24.8h-66.6z"/>
			</g>
			<g id="&lt;Group&gt;">
				<path id="&lt;Path&gt;" class="s0" d="m81 185.5h41.7 23.6 23.1v50.6h-88.4z"/>
			</g>
			<g id="&lt;Group&gt;">
				<path id="&lt;Path&gt;" class="s0" d="m164.5 192.9h13.4v33.3h-13.4z"/>
			</g>
			<g id="&lt;Group&gt;">
				<path id="&lt;Path&gt;" class="s0" d="m397.5 58.9c0-14.6 11.4-26.5 25.4-26.5 14.1 0 25.5 11.9 25.5 26.5 0 14.6-11.4 26.5-25.5 26.5-14 0-25.4-11.9-25.4-26.5z"/>
			</g>
			<g id="&lt;Group&gt;">
				<path id="&lt;Path&gt;" class="s0" d="m499.9 40.9c0-4.7 3.7-8.5 8.2-8.5 4.6 0 8.2 3.8 8.2 8.5 0 4.8-3.6 8.6-8.2 8.6-4.5 0-8.2-3.8-8.2-8.6z"/>
			</g>
			<g id="&lt;Group&gt;">
				<path id="&lt;Path&gt;" class="s0" d="m516.3 76.8c0 4.8-3.6 8.6-8.2 8.6-4.5 0-8.2-3.8-8.2-8.6 0-4.7 3.7-8.5 8.2-8.5 4.6 0 8.2 3.8 8.2 8.5z"/>
			</g>
			<g id="&lt;Group&gt;">
				<path id="&lt;Path&gt;" class="s0" d="m397.5 194c0-4.7 3.6-8.5 8.2-8.5 4.5 0 8.2 3.8 8.2 8.5 0 4.7-3.7 8.5-8.2 8.5-4.6 0-8.2-3.8-8.2-8.5z"/>
			</g>
			<g id="&lt;Group&gt;">
				<path id="&lt;Path&gt;" class="s0" d="m397.5 227.5c0-4.7 3.6-8.5 8.2-8.5 4.5 0 8.2 3.8 8.2 8.5 0 4.7-3.7 8.6-8.2 8.6-4.6 0-8.2-3.9-8.2-8.6z"/>
			</g>
			<g id="&lt;Group&gt;">
				<path id="&lt;Path&gt;" class="s0" d="m465.4 209.5c0-14.6 11.4-26.5 25.5-26.5 14 0 25.4 11.9 25.4 26.5 0 14.7-11.4 26.6-25.4 26.6-14.1 0-25.5-11.9-25.5-26.6z"/>
			</g>
			<g id="&lt;Group&gt;">
				<path id="&lt;Path&gt;" class="s0" d="m465.4 137.6c0-14.7 11.4-26.6 25.5-26.6 14 0 25.4 11.9 25.4 26.6 0 14.6-11.4 26.5-25.4 26.5-14.1 0-25.5-11.9-25.5-26.5z"/>
			</g>
			<g id="&lt;Group&gt;">
				<path id="&lt;Path&gt;" class="s0" d="m497 40.8h19.3v34.6h-19.3z"/>
			</g>
			<g id="&lt;Group&gt;">
				<path id="&lt;Path&gt;" class="s0" d="m397.5 58.7h94.7v26.7h-28.8c-4.4 0-7.9 3.7-7.9 8.2v9.3c0 4.5 3.5 8.1 7.9 8.1h28.8v24.4h-94.7z"/>
			</g>
			<g id="&lt;Group&gt;">
				<path id="&lt;Path&gt;" class="s0" d="m397.5 135.2c0-14.7 11.4-26.5 25.4-26.5 14.1 0 25.5 11.8 25.5 26.5 0 14.6-11.4 26.5-25.5 26.5-14 0-25.4-11.9-25.4-26.5z"/>
			</g>
			<g id="&lt;Group&gt;">
				<path id="&lt;Path&gt;" class="s0" d="m459.2 136.7h57.1v72.1h-57.1v-31.5-7.4z"/>
			</g>
			<g id="&lt;Group&gt;">
				<path id="&lt;Path&gt;" class="s0" d="m421.6 124.8h69v111.3h-69v-50.6h29.7c4.4 0 7.9-3.7 7.9-8.2v-7.4c0-4.5-3.5-8.2-7.9-8.2h-29.7z"/>
			</g>
			<g id="&lt;Group&gt;">
				<path id="&lt;Path&gt;" class="s0" d="m405.2 185.5h1.3 29v50.6h-30.3z"/>
			</g>
			<g id="&lt;Group&gt;">
				<path id="&lt;Path&gt;" class="s0" d="m397.5 193.8h16.1v34h-16.1z"/>
			</g>
			<g id="&lt;Group&gt;">
				<path id="&lt;Path&gt;" class="s0" d="m540.8 58.9c0-14.6 11.4-26.5 25.5-26.5 14 0 25.4 11.9 25.4 26.5 0 14.6-11.4 26.5-25.4 26.5-14.1 0-25.5-11.9-25.5-26.5z"/>
			</g>
			<g id="&lt;Group&gt;">
				<path id="&lt;Path&gt;" class="s0" d="m645.6 40.9c0-4.7 3.6-8.5 8.2-8.5 4.5 0 8.2 3.8 8.2 8.5 0 4.8-3.7 8.6-8.2 8.6-4.6 0-8.2-3.8-8.2-8.6z"/>
			</g>
			<g id="&lt;Group&gt;">
				<path id="&lt;Path&gt;" class="s0" d="m645.6 76.8c0-4.7 3.6-8.5 8.2-8.5 4.5 0 8.2 3.8 8.2 8.5 0 4.8-3.7 8.6-8.2 8.6-4.6 0-8.2-3.8-8.2-8.6z"/>
			</g>
			<g id="&lt;Group&gt;">
				<path id="&lt;Path&gt;" class="s0" d="m645.6 194c0-4.7 3.6-8.5 8.2-8.5 4.5 0 8.2 3.8 8.2 8.5 0 4.7-3.7 8.5-8.2 8.5-4.6 0-8.2-3.8-8.2-8.5z"/>
			</g>
			<g id="&lt;Group&gt;">
				<path id="&lt;Path&gt;" class="s0" d="m645.6 227.5c0-4.7 3.6-8.5 8.2-8.5 4.5 0 8.2 3.8 8.2 8.5 0 4.7-3.7 8.6-8.2 8.6-4.6 0-8.2-3.9-8.2-8.6z"/>
			</g>
			<g id="&lt;Group&gt;">
				<path id="&lt;Path&gt;" class="s0" d="m540.8 209.5c0-14.6 11.4-26.5 25.5-26.5 14 0 25.4 11.9 25.4 26.5 0 14.7-11.4 26.6-25.4 26.6-14.1 0-25.5-11.9-25.5-26.6z"/>
			</g>
			<g id="&lt;Group&gt;">
				<path id="&lt;Path&gt;" class="s0" d="m566.1 32.4h87.4v53h-87.4z"/>
			</g>
			<g id="&lt;Group&gt;">
				<path id="&lt;Path&gt;" class="s0" d="m639.7 41h22.3v35.7h-22.3z"/>
			</g>
			<g id="&lt;Group&gt;">
				<path id="&lt;Path&gt;" class="s0" d="m540.8 58.3l66.6 4.3v22.8h-0.6c-4.3 0-7.8 3.7-7.8 8.2v83.7c0 4.5 3.5 8.2 7.8 8.2h0.6v24.8h-66.6z"/>
			</g>
			<g id="&lt;Group&gt;">
				<path id="&lt;Path&gt;" class="s0" d="m565.1 185.5h41.7 23.6 23.1v50.6h-88.4z"/>
			</g>
			<g id="&lt;Group&gt;">
				<path id="&lt;Path&gt;" class="s0" d="m648.6 192.9h13.4v33.3h-13.4z"/>
			</g>
			<g id="&lt;Group&gt;">
				<path id="&lt;Path&gt;" class="s0" d="m879.8 58.9c0-14.6 11.4-26.5 25.5-26.5 14 0 25.4 11.9 25.4 26.5 0 14.6-11.4 26.5-25.4 26.5-14.1 0-25.5-11.9-25.5-26.5z"/>
			</g>
			<g id="&lt;Group&gt;">
				<path id="&lt;Path&gt;" class="s0" d="m953.7 58.9c0-14.6 11.4-26.5 25.5-26.5 14 0 25.4 11.9 25.4 26.5 0 14.6-11.4 26.5-25.4 26.5-14.1 0-25.5-11.9-25.5-26.5z"/>
			</g>
			<g id="&lt;Group&gt;">
				<path id="&lt;Path&gt;" class="s0" d="m998.4 58.9c0-14.6 11.4-26.5 25.5-26.5 14.1 0 25.5 11.9 25.5 26.5 0 14.6-11.4 26.5-25.5 26.5-14.1 0-25.5-11.9-25.5-26.5z"/>
			</g>
			<g id="&lt;Group&gt;">
				<path id="&lt;Path&gt;" class="s0" d="m879.8 227.5c0-4.7 3.7-8.5 8.2-8.5 4.5 0 8.2 3.8 8.2 8.5 0 4.7-3.7 8.6-8.2 8.6-4.5 0-8.2-3.9-8.2-8.6z"/>
			</g>
			<g id="&lt;Group&gt;">
				<path id="&lt;Path&gt;" class="s0" d="m921.2 227.5c0-4.7 3.7-8.5 8.2-8.5 4.5 0 8.2 3.8 8.2 8.5 0 4.7-3.7 8.6-8.2 8.6-4.5 0-8.2-3.9-8.2-8.6z"/>
			</g>
			<g id="&lt;Group&gt;">
				<path id="&lt;Path&gt;" class="s0" d="m976.9 227.5c0-4.7 3.7-8.5 8.2-8.5 4.6 0 8.3 3.8 8.3 8.5 0 4.7-3.7 8.6-8.3 8.6-4.5 0-8.2-3.9-8.2-8.6z"/>
			</g>
			<g id="&lt;Group&gt;">
				<path id="&lt;Path&gt;" class="s0" d="m1008.1 227.5c0-4.7 3.7-8.5 8.2-8.5 4.6 0 8.2 3.8 8.2 8.5 0 4.7-3.6 8.6-8.2 8.6-4.5 0-8.2-3.9-8.2-8.6z"/>
			</g>
			<g id="&lt;Group&gt;">
				<path id="&lt;Path&gt;" class="s0" d="m1063.3 227.5c0-4.7 3.7-8.5 8.2-8.5 4.6 0 8.2 3.8 8.2 8.5 0 4.7-3.6 8.6-8.2 8.6-4.5 0-8.2-3.9-8.2-8.6z"/>
			</g>
			<g id="&lt;Group&gt;">
				<path id="&lt;Path&gt;" class="s0" d="m1103.8 227.5c0-4.7 3.7-8.5 8.2-8.5 4.5 0 8.2 3.8 8.2 8.5 0 4.7-3.7 8.6-8.2 8.6-4.5 0-8.2-3.9-8.2-8.6z"/>
			</g>
			<g id="&lt;Group&gt;">
				<path id="&lt;Path&gt;" class="s0" d="m904.6 32.4h75.3v170.3h-3v-109.1c0-4.5-3.5-8.2-7.8-8.2h-23.6c-4.4 0-7.9 3.7-7.9 8.2v109.1h-33z"/>
			</g>
			<g id="&lt;Group&gt;">
				<path id="&lt;Path&gt;" class="s0" d="m974.7 61.5h53.4v25.2c-2.1 1.5-3.6 4-3.6 6.9v116.7h-47.6v-116.7c0-2.2-0.8-4.2-2.2-5.7z"/>
			</g>
			<g id="&lt;Group&gt;">
				<path id="&lt;Path&gt;" class="s0" d="m879.8 59.7h57.8v33.9 121.5 12.9h-57.8z"/>
			</g>
			<g id="&lt;Group&gt;">
				<path id="&lt;Path&gt;" class="s0" d="m1063.3 57.1h56.9v170.5h-56.9v-134-4.7z"/>
			</g>
			<g id="&lt;Group&gt;">
				<path id="&lt;Path&gt;" class="s0" d="m985.1 214.2h31.5v21.9h-31.5z"/>
			</g>
			<g id="&lt;Group&gt;">
				<path id="&lt;Path&gt;" class="s0" d="m888 223.1h41.5v13h-41.5z"/>
			</g>
			<g id="&lt;Group&gt;">
				<path id="&lt;Path&gt;" class="s0" d="m1071.2 223.1h41.5v13h-41.5z"/>
			</g>
			<g id="&lt;Group&gt;">
				<path id="&lt;Path&gt;" class="s0" d="m1022.9 32.4h71.5v169.9l-31.1 0.2v-108.7c0-4.6-2.9-8.4-7.3-8.4h-23.6c-4.3 0-7.9 3.7-7.9 8.2v108.7h-1.6z"/>
			</g>
			<g id="&lt;Group&gt;">
				<path id="&lt;Path&gt;" class="s0" d="m-0.2 302.8h1166.8v90.2h-1166.8z"/>
			</g>
		</g>
	</g>
</svg>